<svg width="45" height="45" viewBox="0 0 45 45" fill="none" xmlns="http://www.w3.org/2000/svg">
<g clip-path="url(#clip0_255414_148393)">
<path fill-rule="evenodd" clip-rule="evenodd" d="M26.4406 33.0293C24.0097 34.3884 21.208 35.1619 18.2274 35.1619C8.91551 35.1619 1.35547 27.6019 1.35547 18.29C1.35547 8.97819 8.91551 1.41815 18.2274 1.41815C27.5392 1.41815 35.0993 8.97819 35.0993 18.29C35.0993 21.2707 34.3258 24.0724 32.9667 26.5033L42.0956 34.4908C42.9745 35.2604 43.4944 36.359 43.5342 37.5262C43.573 38.6924 43.1266 39.8228 42.3004 40.649L40.5864 42.3631C39.7602 43.1893 38.6297 43.6357 37.4635 43.5969C36.2963 43.5571 35.1977 43.0371 34.4282 42.1583L26.4406 33.0293ZM30.7923 24.6013C31.7497 22.7034 32.2876 20.5589 32.2876 18.29C32.2876 10.5292 25.9882 4.2298 18.2274 4.2298C10.4665 4.2298 4.16713 10.5292 4.16713 18.29C4.16713 26.0509 10.4665 32.3503 18.2274 32.3503C20.4962 32.3503 22.6407 31.8124 24.5387 30.855C25.3917 30.4255 26.195 29.9125 26.9367 29.3259C27.7997 28.6438 28.5812 27.8624 29.2632 26.9994C29.8498 26.2577 30.3628 25.4544 30.7923 24.6013ZM28.79 31.4436L36.5459 40.307C36.8024 40.5993 37.1672 40.7733 37.557 40.7852C37.9457 40.7982 38.3225 40.65 38.5979 40.3746L40.3119 38.6606C40.5873 38.3852 40.7355 38.0084 40.7226 37.6196C40.7106 37.2299 40.5366 36.865 40.2433 36.6075L31.3809 28.8526C30.6133 29.8071 29.7444 30.676 28.79 31.4436Z" fill="#004A9A"/>
<path fill-rule="evenodd" clip-rule="evenodd" d="M17.0941 8.88383C17.9323 8.4255 18.9484 8.4255 19.7865 8.88383L26.1147 12.3348C27.0174 12.8279 27.5802 13.7744 27.5792 14.8034L27.5792 22.9759C27.5802 24.0049 27.0174 24.9514 26.1147 25.4445L19.7865 28.8955C18.9484 29.3538 17.9323 29.3538 17.0941 28.8955L10.7659 25.4445C9.86318 24.9514 9.30046 24.0049 9.30145 22.9759L9.30145 14.8034C9.30046 13.7744 9.86318 12.8279 10.7659 12.3348L17.0941 8.88383ZM18.4403 11.3515L23.2374 13.9693L18.4403 16.5851L13.6432 13.9693L18.4403 11.3515ZM12.1131 16.3365L12.1131 22.9759L17.0345 25.6603L17.0345 19.0209L12.1131 16.3365ZM24.7675 22.9759L19.8461 25.6603L19.8461 19.0209L24.7675 16.3365L24.7675 22.9759Z" fill="#106FCF"/>
</g>
<defs>
<clipPath id="clip0_255414_148393">
<rect width="45" height="45" fill="white"/>
</clipPath>
</defs>
</svg>
