<svg width="51" height="50" viewBox="0 0 51 50" fill="none" xmlns="http://www.w3.org/2000/svg">
<path d="M47.3753 33.9375C47.3249 33.7314 47.2331 33.5377 47.1054 33.3683C46.9778 33.1988 46.8169 33.0571 46.6327 32.9519C46.4485 32.8466 46.2448 32.78 46.034 32.756C45.8232 32.732 45.6097 32.7513 45.4066 32.8125L27.7816 37.5C27.2335 36.5508 26.4456 35.7624 25.4967 35.2139C24.5478 34.6654 23.4713 34.3761 22.3753 34.375L14.8753 6.59375C14.6071 5.59749 14.0176 4.71756 13.1983 4.09041C12.3791 3.46325 11.3758 3.12391 10.3441 3.125H5.18781C4.7734 3.125 4.37598 3.28962 4.08295 3.58265C3.78993 3.87567 3.62531 4.2731 3.62531 4.6875C3.62531 5.1019 3.78993 5.49933 4.08295 5.79236C4.37598 6.08538 4.7734 6.25 5.18781 6.25H10.3441C10.6968 6.23792 11.0433 6.34563 11.327 6.55558C11.6107 6.76554 11.815 7.06537 11.9066 7.40625L19.2503 35.2188C18.3 35.7674 17.5108 36.5567 16.9622 37.5071C16.4137 38.4575 16.125 39.5356 16.1253 40.633C16.1256 41.7304 16.4148 42.8083 16.9639 43.7585C17.5129 44.7086 18.3024 45.4975 19.2531 46.0457C20.2037 46.5939 21.2819 46.8821 22.3793 46.8814C23.4767 46.8807 24.5545 46.5911 25.5045 46.0417C26.4544 45.4922 27.2429 44.7024 27.7908 43.7515C28.3386 42.8007 28.6264 41.7224 28.6253 40.625L46.2191 35.9375C46.4315 35.8912 46.632 35.801 46.8076 35.6728C46.9832 35.5446 47.1301 35.3811 47.2389 35.1929C47.3478 35.0046 47.4161 34.7958 47.4396 34.5796C47.4631 34.3634 47.4412 34.1447 47.3753 33.9375ZM22.3753 43.75C21.7572 43.75 21.1531 43.5667 20.6392 43.2233C20.1252 42.88 19.7247 42.3919 19.4882 41.8209C19.2517 41.2499 19.1898 40.6215 19.3104 40.0153C19.4309 39.4092 19.7286 38.8523 20.1656 38.4153C20.6026 37.9783 21.1595 37.6806 21.7656 37.56C22.3718 37.4395 23.0002 37.5014 23.5712 37.7379C24.1422 37.9744 24.6303 38.3749 24.9736 38.8888C25.317 39.4027 25.5003 40.0069 25.5003 40.625C25.5003 41.4538 25.1711 42.2487 24.585 42.8347C23.999 43.4208 23.2041 43.75 22.3753 43.75Z" fill="#003A78"/>
<path d="M24.8751 31.8591C24.9818 32.2581 25.1666 32.6321 25.4187 32.9593C25.6708 33.2865 25.9852 33.5604 26.3439 33.7653C26.8169 34.045 27.3569 34.1908 27.9064 34.1872C28.1806 34.1826 28.4532 34.1459 28.7189 34.0778L43.8126 30.031C44.2099 29.9257 44.5826 29.7431 44.9092 29.4937C45.2359 29.2442 45.5101 28.9328 45.7162 28.5772C45.9223 28.2216 46.0562 27.8288 46.1103 27.4214C46.1644 27.014 46.1376 26.5999 46.0314 26.2028L41.9689 11.1091C41.753 10.3096 41.2285 9.62844 40.5107 9.21535C39.7929 8.80226 38.9405 8.69098 38.1408 8.90596L23.047 12.9528C22.2452 13.1622 21.5594 13.6814 21.1403 14.3964C20.7213 15.1114 20.6034 15.9635 20.8126 16.7653L24.8751 31.8591ZM33.8751 17.1872L32.922 16.9997C32.6855 16.9518 32.4411 16.9593 32.2079 17.0216C31.9748 17.084 31.7593 17.1995 31.5783 17.3591L30.8595 17.9997L29.8908 14.406L32.9064 13.5935L33.8751 17.1872ZM26.8751 15.156L28.4376 21.1872C28.5066 21.4451 28.6404 21.681 28.8264 21.8725C29.0124 22.064 29.2444 22.2046 29.5001 22.281C29.6504 22.303 29.803 22.303 29.9533 22.281C30.3331 22.2804 30.6997 22.1416 30.9845 21.8903L33.0158 20.0935L35.672 20.6403C35.932 20.7013 36.2033 20.6946 36.46 20.6209C36.7167 20.5473 36.9502 20.409 37.1382 20.2194C37.3263 20.0298 37.4626 19.7951 37.5342 19.5378C37.6057 19.2805 37.6102 19.0092 37.547 18.7497L35.9845 12.7185L39.0158 11.906L43.0626 26.9997L27.9689 31.0466L23.9376 15.9685L26.8751 15.156Z" fill="#106FCF"/>
</svg>
