<svg width="51" height="56" viewBox="0 0 51 56" fill="none" xmlns="http://www.w3.org/2000/svg">
<path fill-rule="evenodd" clip-rule="evenodd" d="M22.7503 0.873179C23.0798 0.682899 23.4859 0.682899 23.8155 0.873178L45.0332 13.1231C45.3628 13.3134 45.5658 13.665 45.5658 14.0456V27.1578C45.5658 27.7461 45.0889 28.223 44.5006 28.223C43.9123 28.223 43.4354 27.7461 43.4354 27.1578V15.8905L23.8155 27.2181C23.4859 27.4084 23.0798 27.4084 22.7503 27.2181L17.8163 24.3695V31.3951C17.8163 31.8445 17.5342 32.2456 17.1112 32.3976C16.6883 32.5495 16.2154 32.4197 15.9294 32.073L12.0706 27.396L9.30143 28.0029C8.98635 28.072 8.65696 27.9946 8.40564 27.7924C8.15433 27.5902 8.00817 27.285 8.00817 26.9624V18.7068L3.13044 15.8906V37.9308L23.2829 49.5657L30.9332 45.1488C31.4426 44.8547 32.0941 45.0293 32.3883 45.5387C32.6824 46.0482 32.5079 46.6997 31.9984 46.9939L23.8155 51.7182C23.4859 51.9085 23.0798 51.9085 22.7503 51.7182L1.53261 39.4683C1.20303 39.278 1 38.9264 1 38.5458V14.0456C1 13.665 1.20303 13.3134 1.53261 13.1231L22.7503 0.873179ZM4.19565 14.0456L23.2829 3.02569L28.1606 5.8418L9.07344 16.8618L4.19565 14.0456ZM10.1386 19.9368V25.6385L12.2501 25.1757C12.6403 25.0902 13.0456 25.2302 13.2998 25.5383L15.6858 28.4302V23.1395L10.1386 19.9368ZM16.751 21.2944L11.2039 18.0918L30.291 7.0718L35.8383 10.2745L16.751 21.2944ZM18.8815 22.5244L37.9687 11.5045L42.3701 14.0456L23.2829 25.0656L18.8815 22.5244Z" fill="#003A78" stroke="#003A78" stroke-width="0.5" stroke-miterlimit="22.9256" stroke-linecap="round" stroke-linejoin="round"/>
<path fill-rule="evenodd" clip-rule="evenodd" d="M23.2829 25.2305C23.8712 25.2305 24.3481 25.7074 24.3481 26.2957V50.2231C24.3481 50.8114 23.8712 51.2884 23.2829 51.2884C22.6946 51.2884 22.2177 50.8114 22.2177 50.2231V26.2957C22.2177 25.7074 22.6946 25.2305 23.2829 25.2305Z" fill="#003A78" stroke="#003A78" stroke-width="0.5" stroke-miterlimit="22.9256" stroke-linecap="round" stroke-linejoin="round"/>
<path fill-rule="evenodd" clip-rule="evenodd" d="M49.4675 23.9015C49.7971 24.0918 50.0001 24.4434 50.0001 24.824V44.2303C50.0001 44.6108 49.7971 44.9625 49.4675 45.1528L32.1917 55.127C31.8621 55.3173 31.4561 55.3173 31.1265 55.127C30.7969 54.9367 30.5939 54.5851 30.5939 54.2045V34.7982C30.5939 34.4176 30.7969 34.066 31.1265 33.8757L38.1666 29.8111L35.4899 28.2657C35.4901 28.7362 35.1762 29.1669 34.7002 29.2944C34.1319 29.4467 33.5478 29.1095 33.3955 28.5413L32.8106 26.3586C32.7375 26.0857 32.7757 25.795 32.917 25.5503C33.0583 25.3056 33.2909 25.1271 33.5638 25.054L35.7466 24.4692C36.3148 24.3169 36.8989 24.6542 37.0512 25.2224C37.1787 25.6985 36.9627 26.1857 36.5552 26.4207L40.2971 28.581L48.4023 23.9015C48.7319 23.7112 49.1379 23.7112 49.4675 23.9015ZM32.7243 35.4132V52.3595L47.8697 43.6153V26.669L32.7243 35.4132ZM41.2194 38.2615C41.5136 38.771 41.339 39.4225 40.8295 39.7166L36.9851 41.9362C36.4756 42.2304 35.8241 42.0558 35.53 41.5463C35.2358 41.0368 35.4104 40.3854 35.9199 40.0912L39.7643 37.8716C40.2738 37.5775 40.9253 37.752 41.2194 38.2615ZM45.0639 41.023C45.3581 41.5325 45.1835 42.1839 44.674 42.4781L36.9851 46.9173C36.4756 47.2114 35.8241 47.0369 35.53 46.5274C35.2358 46.0179 35.4104 45.3664 35.9199 45.0723L43.6088 40.6331C44.1183 40.3389 44.7698 40.5135 45.0639 41.023Z" fill="#106FCF" stroke="#106FCF" stroke-width="0.5" stroke-miterlimit="22.9256" stroke-linecap="round" stroke-linejoin="round"/>
</svg>
