<svg width="50" height="50" viewBox="0 0 50 50" fill="none" xmlns="http://www.w3.org/2000/svg">
<path d="M7.74876 35.853C7.7487 36.266 7.83053 36.675 7.98952 37.0562C8.14851 37.4375 8.3815 37.7834 8.67502 38.074C9.05966 38.4664 9.54372 38.7468 10.0754 38.8853C10.3415 38.9517 10.6144 38.9867 10.8886 38.9896L26.5154 38.9806C26.9264 38.9816 27.3336 38.9016 27.7136 38.745C28.0936 38.5884 28.439 38.3584 28.73 38.0681C29.021 37.7779 29.2519 37.4331 29.4094 37.0535C29.5669 36.6739 29.648 36.2669 29.6481 35.8559L29.624 20.225C29.622 19.3968 29.2914 18.6033 28.7047 18.0188C28.1181 17.4342 27.3234 17.1065 26.4952 17.1075L10.8684 17.1165C10.0397 17.1115 9.24294 17.4359 8.6534 18.0183C8.06386 18.6007 7.7298 19.3934 7.72467 20.2221L7.74876 35.853ZM20.2345 24.0051L19.3622 23.5777C19.1461 23.4703 18.908 23.4144 18.6667 23.4144C18.4254 23.4143 18.1873 23.4702 17.9712 23.5776L17.1113 24.0108L17.1041 20.2887L20.2273 20.2831L20.2345 24.0051ZM13.9971 20.234L13.948 26.4642C13.948 26.7311 14.0163 26.9936 14.1465 27.2266C14.2767 27.4597 14.4644 27.6555 14.6918 27.7953C14.8312 27.8554 14.9787 27.8949 15.1295 27.9124C15.4966 28.01 15.8866 27.9706 16.2267 27.8016L18.6533 26.5906L21.078 27.8053C21.3134 27.9314 21.5772 27.9951 21.8442 27.9902C22.1112 27.9854 22.3725 27.9121 22.6032 27.7776C22.8339 27.643 23.0262 27.4515 23.1618 27.2215C23.2974 26.9914 23.3718 26.7304 23.3779 26.4634L23.427 20.2333L26.5652 20.2317L26.5742 35.8585L10.9474 35.8675L10.9495 20.2598L13.9971 20.234Z" fill="#106FCF"/>
<path fill-rule="evenodd" clip-rule="evenodd" d="M29.6875 10.9375H7.8125C6.08661 10.9375 4.6875 12.3366 4.6875 14.0625V39.0625C4.6875 40.7884 6.08661 42.1875 7.8125 42.1875H29.6875C31.4134 42.1875 32.8125 40.7884 32.8125 39.0625V14.0625C32.8125 12.3366 31.4134 10.9375 29.6875 10.9375ZM7.8125 7.8125C4.36072 7.8125 1.5625 10.6107 1.5625 14.0625V39.0625C1.5625 42.5143 4.36072 45.3125 7.8125 45.3125H29.6875C33.1393 45.3125 35.9375 42.5143 35.9375 39.0625V14.0625C35.9375 10.6107 33.1393 7.8125 29.6875 7.8125H7.8125Z" fill="#003A78"/>
<path d="M39.5001 28.1239C40.0839 27.54 41.0306 27.54 41.6144 28.1239L42.7611 29.2706L42.7611 20.2451C42.7611 19.4193 43.4306 18.75 44.2562 18.75C45.0819 18.75 45.7513 19.4193 45.7513 20.2451L45.7513 29.2706L46.898 28.1238C47.4818 27.5399 48.4284 27.5399 49.0123 28.1238C49.5962 28.7079 49.5962 29.6545 49.0123 30.2382L45.3134 33.9371C44.7296 34.521 43.7829 34.521 43.1991 33.9371L39.5002 30.2382C39.2082 29.9462 39.0622 29.5636 39.0622 29.181C39.0622 28.7985 39.2082 28.4159 39.5001 28.1239Z" fill="#106FCF"/>
<path fill-rule="evenodd" clip-rule="evenodd" d="M10.9375 4.6875L10.9375 9.375L7.8125 9.375L7.8125 4.6875C7.8125 3.82455 8.51205 3.125 9.375 3.125C10.2379 3.125 10.9375 3.82455 10.9375 4.6875Z" fill="#003A78"/>
<path fill-rule="evenodd" clip-rule="evenodd" d="M29.6875 4.6875L29.6875 9.375L26.5625 9.375L26.5625 4.6875C26.5625 3.82455 27.2621 3.125 28.125 3.125C28.9879 3.125 29.6875 3.82455 29.6875 4.6875Z" fill="#003A78"/>
</svg>
