<svg width="49" height="48" viewBox="0 0 49 48" fill="none" xmlns="http://www.w3.org/2000/svg">
<path d="M20.3232 11.2402H28.585" stroke="#003A78" stroke-width="3" stroke-miterlimit="10" stroke-linecap="round" stroke-linejoin="round"/>
<path d="M12.4229 46V19H36.4229V46" stroke="#003A78" stroke-width="3" stroke-miterlimit="10" stroke-linecap="round" stroke-linejoin="round"/>
<path fill-rule="evenodd" clip-rule="evenodd" d="M2.42285 47.623C1.59442 47.623 0.922852 46.9515 0.922852 46.123V11.8887C0.922852 11.3004 1.26671 10.7665 1.80227 10.5231L23.8335 0.511345C24.2271 0.332493 24.6787 0.332142 25.0725 0.510376L47.1956 10.5221C47.7323 10.765 48.0771 11.2996 48.0771 11.8887V46.123C48.0771 46.9515 47.4056 47.623 46.5771 47.623H36.4229V44.623H45.0771V12.8563L24.4554 3.52399L3.92285 12.8547V44.623H12.4229V47.623H2.42285Z" fill="#003A78"/>
<path d="M18.9305 37.95C19.6074 37.273 20.7049 37.273 21.3818 37.95L22.7113 39.2794L22.7113 27.7333C22.7113 26.776 23.4874 26 24.4446 26C25.4018 26 26.1779 26.776 26.1779 27.7333L26.1779 39.2794L27.5074 37.9499C28.1843 37.2729 29.2817 37.2729 29.9587 37.9499C30.6355 38.627 30.6355 39.7245 29.9587 40.4012L25.6703 44.6895C24.9934 45.3665 23.8959 45.3665 23.219 44.6895L18.9306 40.4012C18.5921 40.0627 18.4229 39.6191 18.4229 39.1756C18.4229 38.7321 18.5921 38.2884 18.9305 37.95Z" fill="#106FCF"/>
</svg>
