<svg width="45" height="52" viewBox="0 0 45 52" fill="none" xmlns="http://www.w3.org/2000/svg">
<path d="M42.6036 14.4022C42.5785 13.851 42.5644 13.3109 42.5565 12.7768C42.5262 10.7408 40.9246 9.07932 38.8916 8.96575C32.6738 8.61848 27.8111 6.55022 23.7036 2.5467C23.0163 1.91672 21.9854 1.91672 21.2981 2.5467C17.1906 6.55022 12.3279 8.61848 6.11013 8.96575C4.07713 9.07932 2.47547 10.7408 2.44529 12.7768C2.43738 13.3108 2.42322 13.851 2.39822 14.4022C2.1697 26.4007 1.82713 42.8451 21.7844 49.8041C21.8797 49.8373 21.9779 49.864 22.0769 49.8837L22.0778 49.8839C22.3571 49.9398 22.6447 49.9398 22.924 49.8839C23.0236 49.864 23.1224 49.8372 23.2183 49.8036C43.1177 42.8447 42.8322 26.4575 42.6036 14.4022Z" stroke="#003A78" stroke-width="3.15" stroke-miterlimit="10"/>
<path d="M22.5001 37.1797C28.6734 37.1797 33.6779 32.1752 33.6779 26.002C33.6779 19.8287 28.6734 14.8242 22.5001 14.8242C16.3268 14.8242 11.3224 19.8287 11.3224 26.002C11.3224 32.1752 16.3268 37.1797 22.5001 37.1797Z" stroke="#106FCF" stroke-width="3.15" stroke-miterlimit="10"/>
<path d="M27.1954 23.1211L20.256 30.0604" stroke="#106FCF" stroke-width="3.15" stroke-miterlimit="10" stroke-linecap="round"/>
<path d="M17.6036 27.4102L20.2554 30.062" stroke="#106FCF" stroke-width="3.15" stroke-miterlimit="10" stroke-linecap="round"/>
</svg>
