<svg width="51" height="50" viewBox="0 0 51 50" fill="none" xmlns="http://www.w3.org/2000/svg">
<g clip-path="url(#clip0_1697_1139)">
<path d="M38.2627 29.7266C34.7875 29.7266 31.9602 32.5538 31.9602 36.0291C31.9602 39.5044 34.7875 42.3316 38.2627 42.3316C41.7386 42.3316 44.5653 39.5044 44.5653 36.0291C44.5653 32.5538 41.738 29.7266 38.2627 29.7266ZM38.2627 39.1804C36.5249 39.1804 35.1115 37.767 35.1115 36.0291C35.1115 34.2912 36.5249 32.8778 38.2627 32.8778C40.0006 32.8778 41.414 34.2912 41.414 36.0291C41.414 37.7671 40.0006 39.1804 38.2627 39.1804Z" fill="#003A78"/>
<path d="M16.7291 29.7266C13.2538 29.7266 10.4265 32.5538 10.4265 36.0291C10.4265 39.5044 13.2538 42.3316 16.7291 42.3316C20.2043 42.3316 23.0316 39.5044 23.0316 36.0291C23.0316 32.5538 20.2043 29.7266 16.7291 29.7266ZM16.7291 39.1804C14.9912 39.1804 13.5778 37.767 13.5778 36.0291C13.5778 34.2912 14.9912 32.8778 16.7291 32.8778C18.4665 32.8778 19.8803 34.2912 19.8803 36.0291C19.8803 37.7671 18.4669 39.1804 16.7291 39.1804Z" fill="#003A78"/>
<path d="M42.5071 11.687C42.2392 11.155 41.6946 10.8193 41.099 10.8193H32.8007V13.9706H40.1273L44.4177 22.5042L47.234 21.0882L42.5071 11.687Z" fill="#003A78"/>
<path d="M33.536 34.5059H21.6138V37.6571H33.536V34.5059Z" fill="#003A78"/>
<path d="M12.0021 34.5059H6.53994C5.66963 34.5059 4.96436 35.2112 4.96436 36.0814C4.96436 36.9518 5.66973 37.657 6.53994 37.657H12.0021C12.8725 37.657 13.5777 36.9517 13.5777 36.0814C13.5777 35.2111 12.8724 34.5059 12.0021 34.5059Z" fill="#003A78"/>
<path d="M50.1692 24.8738L47.07 20.8822C46.7722 20.4978 46.3127 20.2729 45.8257 20.2729H34.3761V9.24355C34.3761 8.37324 33.6708 7.66797 32.8005 7.66797H6.54C5.66969 7.66797 4.96442 8.37334 4.96442 9.24355C4.96442 10.1138 5.66979 10.8191 6.54 10.8191H31.2249V21.8485C31.2249 22.7188 31.9302 23.4241 32.8005 23.4241H45.0542L47.3488 26.38V34.5061H42.9895C42.1192 34.5061 41.4139 35.2114 41.4139 36.0816C41.4139 36.952 42.1193 37.6572 42.9895 37.6572H48.9244C49.7947 37.6572 50.5 36.9519 50.5001 36.0816V25.8402C50.5001 25.4904 50.3835 25.1501 50.1692 24.8738Z" fill="#003A78"/>
<path d="M11.8973 26.5234H4.64932C3.779 26.5234 3.07373 27.2288 3.07373 28.099C3.07373 28.9693 3.7791 29.6746 4.64932 29.6746H11.8972C12.7675 29.6746 13.4728 28.9692 13.4728 28.099C13.4729 27.2288 12.7675 26.5234 11.8973 26.5234Z" fill="#106FCF"/>
<path d="M15.5212 20.3252H2.07583C1.20562 20.3252 0.500244 21.0306 0.500244 21.9009C0.500244 22.7712 1.20562 23.4765 2.07583 23.4765H15.5212C16.3916 23.4765 17.0968 22.7711 17.0968 21.9009C17.0968 21.0307 16.3916 20.3252 15.5212 20.3252Z" fill="#106FCF"/>
<path d="M18.0947 14.1279H4.64932C3.779 14.1279 3.07373 14.8333 3.07373 15.7035C3.07373 16.5738 3.7791 17.2791 4.64932 17.2791H18.0947C18.965 17.2791 19.6703 16.5737 19.6703 15.7035C19.6704 14.8333 18.965 14.1279 18.0947 14.1279Z" fill="#106FCF"/>
</g>
<defs>
<clipPath id="clip0_1697_1139">
<rect width="50" height="50" fill="white" transform="translate(0.5)"/>
</clipPath>
</defs>
</svg>
