<svg width="49" height="48" viewBox="0 0 49 48" fill="none" xmlns="http://www.w3.org/2000/svg">
<path d="M20.3232 11.2402H28.585" stroke="#003A78" stroke-width="3" stroke-miterlimit="10" stroke-linecap="round" stroke-linejoin="round"/>
<path d="M12.4229 46V19H36.4229V46" stroke="#003A78" stroke-width="3" stroke-miterlimit="10" stroke-linecap="round" stroke-linejoin="round"/>
<path fill-rule="evenodd" clip-rule="evenodd" d="M2.42285 47.623C1.59442 47.623 0.922852 46.9515 0.922852 46.123V11.8887C0.922852 11.3004 1.26671 10.7665 1.80227 10.5231L23.8335 0.511345C24.2271 0.332493 24.6787 0.332142 25.0725 0.510376L47.1956 10.5221C47.7323 10.765 48.0771 11.2996 48.0771 11.8887V46.123C48.0771 46.9515 47.4056 47.623 46.5771 47.623H36.4229V44.623H45.0771V12.8563L24.4554 3.52399L3.92285 12.8547V44.623H12.4229V47.623H2.42285Z" fill="#003A78"/>
<path d="M29.9586 33.2473C29.2818 33.9242 28.1842 33.9242 27.5074 33.2473L26.1779 31.9179L26.1779 43.4639C26.1779 44.4213 25.4018 45.1973 24.4446 45.1973C23.4873 45.1973 22.7112 44.4213 22.7112 43.4639L22.7112 31.9179L21.3818 33.2474C20.7049 33.9244 19.6075 33.9244 18.9305 33.2474C18.2536 32.5703 18.2536 31.4728 18.9305 30.7961L23.2189 26.5077C23.8958 25.8308 24.9933 25.8308 25.6701 26.5077L29.9585 30.7961C30.2971 31.1345 30.4663 31.5782 30.4663 32.0217C30.4663 32.4652 30.2971 32.9088 29.9586 33.2473Z" fill="#106FCF"/>
</svg>
